<svg xmlns="http://www.w3.org/2000/svg" width="42" height="42" xmlns:v="https://adil.email"><path d="M20.75-.312L22.883-.4C28.06-.463 30.883.624 35 4c1.863 1.852 1.863 1.852 3.313 3.625l1.488 1.789c2.695 3.563 2.454 7.035 2.512 11.336l.088 2.133c.063 5.178-1.024 8-4.4 12.117-1.852 1.863-1.852 1.863-3.625 3.313l-1.789 1.488c-3.563 2.695-7.035 2.454-11.336 2.512l-2.133.088c-5.178.063-8-1.024-12.117-4.4-1.863-1.852-1.863-1.852-3.312-3.625l-1.488-1.789C-.495 29.022-.255 25.551-.312 21.25L-.4 19.117C-.463 13.94.624 11.117 4 7c1.852-1.863 1.852-1.863 3.625-3.312l1.789-1.488C12.978-.495 16.449-.255 20.75-.312z" fill="#0d101b"/><path d="M20 9v3l7-2-1 10 1-2h2l-1 6h2l1-8h-3v-3h4v-2h2V9h3c-.75 6.625-.75 6.625-3 10v4l2-1-1 3-17 2v2l-3-1v-5l-1.355 1.348C11.823 26.052 10.072 27.608 8 29c-2.937-.125-2.937-.125-5-1l-1-3h2v2c2.473-.344 2.473-.344 5-1l1-2-2-1c.571-3.994 1.929-6.578 4-10v-3c2.709-1.354 5.009-1.065 8-1z" fill="#624a50"/><path d="M21 3h3l1 4c5.476 1.947 5.476 1.947 11 1l-2 1v2h-2v2h-4v3h3c.125 5.75.125 5.75-1 8h-2l1-6h-2l-1 3h-1c.875-7.625.875-7.625 2-11l-3 2h-4V9c-3.465.62-3.465.62-7 2-1.382 2.203-1.382 2.203-2 5l-1.625 3.813L8 23l3 1-2 3c-2.625.188-2.625.188-5 0v-2H2l2-11h4L7 7l2.563.563C13.277 8.035 16.33 7.661 20 7l1-4z" fill="#203040"/><path d="M20.75-.312L22.883-.4C28.181-.464 30.858.698 35 4l-4 1V3l-3 2h-4V3h-3l-1 4-4.25 1.125-2.391.633C10.58 9.043 9.341 8.45 7 7l1 7H4l-.562 6.375-.316 3.586C2.758 26.919 2.758 26.919 4 29l-4-1-.25-7.125-.102-2.016C-.453 13.697.772 10.963 4 7c1.852-1.863 1.852-1.863 3.625-3.312l1.789-1.488C12.978-.495 16.449-.255 20.75-.312z" fill="#08202c"/><path d="M34 9h3c-.75 6.625-.75 6.625-3 10v4l2-1-1 3-16 1v-7c1.875-1.562 1.875-1.562 4-3 1.28-3.088 1.28-3.088 2-6h2l-1 10 1-2h2l-1 6h2l1-8h-3v-3h4v-2h2V9z" fill="#c7835c"/><path d="M31 3v2l2.313-.187C36 5 36 5 37.652 6.215c1.753 2.322 1.687 3.652 1.598 6.535l-.078 2.664C38.956 18.658 38.557 21.797 38 25l-3-2-2 1c-.375-4.372.79-6.317 3-10 .252-2.71.252-2.71 0-5l-2.625.688C29.317 10.063 27.448 9.053 24 7c1.467-2.934 3.74-4 7-4z" fill="#491e21"/><path d="M16 11h3l-1 18-3-1v-5l-1.355 1.348C11.823 26.052 10.072 27.608 8 29c-2.937-.125-2.937-.125-5-1l-1-3h2v2c2.473-.344 2.473-.344 5-1l1-2-2-1v-3h2.313c2.788-.702 2.788-.702 3.688-2.848L16 11z" fill="#c28766"/><path d="M35 24l1 2-5 1 4 1c-1.875 3.875-1.875 3.875-3 5h-6v-3l-7 1-1-4c5.67-1.546 11.147-2.485 17-3z" fill="#3f2025"/><path d="M39 9c3.131 3.386 3.336 5.711 3.188 10.25l-.082 3.266L42 25l-2 1c-.722 1.644-1.394 3.311-2 5l-4-1v-2h-6l1-2h7c1.546-5.67 2.485-11.147 3-17z" fill="#170b15"/><path d="M5 6l2 1 1 7H4l-.562 6.375-.316 3.586C2.758 26.919 2.758 26.919 4 29l-4-1-.25-7.125-.102-2.016C-.452 13.722.833 10.976 4 7l1-1z" fill="#08212d"/><path d="M33 8l3 1h-2v2h-2v2h-4v3h3c.125 5.75.125 5.75-1 8h-2l1-6h-2l-1 3h-1c.75-7.625.75-7.625 3-11 2.063-.625 2.063-.625 4-1l1-1z" fill="#934235"/><path d="M21 3h3l.125 1.813c.752 2.539.752 2.539 3.938 3.938L31 10c-3.689 1.23-7.137 1.557-11 2V8h-5V7h5l1-4z" fill="#1f242f"/><path d="M18 0c6.952-.445 11.597-.673 17 4l-4 1V3l-3 2h-4V3l-6-1V0z" fill="#050d18"/><path d="M31 3v2l2.375-.187L36 5l2 3c-7.138 2.338-7.138 2.338-11.5.625L24 7c1.467-2.934 3.74-4 7-4z" fill="#220a11"/><path d="M13 23h2l1 8-4-2-2 6-2-1 2-4H4l1.688-.687c2.537-1.305 2.537-1.305 4.938-3.937L13 23z" fill="#451f23"/><path d="M6 18l3 1-1 4 3 1-2 3c-2.625.188-2.625.188-5 0v-2l-2-1 2-1 2-5z" fill="#333646"/><path d="M38 23h1v7l-5 1v-3h-6l1-2h7l1-2 1-1z" fill="#250e16"/><path d="M0 28l10 2-2 4H3l-3-6z" fill="#1a0810"/><path d="M25 10h2c-.97 7.116-.97 7.116-3 10-2.125.75-2.125.75-4 1 .375-1.937.375-1.937 1-4l2-1a101.17 101.17 0 0 0 2-6z" fill="#d3a17b"/><path d="M36 8h3c.25 7.625.25 7.625-2 11l-3-1 1-1.625c1.227-2.914 1.142-5.244 1-8.375z" fill="#4a1110"/><path d="M20 8v1l-3.375.688c-3.769.904-3.769.904-4.937 3.813L11 16l-2 2c.594-6.302.594-6.302 2.125-8.937C14.031 7.416 16.738 7.815 20 8z" fill="#233849"/><path d="M30 9l1 2-2.687-.062c-2.934.055-5.467.393-8.312 1.063V9c3.573-1.237 6.355-.891 10 0z" fill="#49323d"/><path d="M4 14h3L5 24H2l2-10z" fill="#1a2b39"/><path d="M0 19l3 1-.062 3.375C2.736 26.832 2.736 26.832 4 29l-4-1v-9z" fill="#1e1e28"/><path d="M18 10h2v2h4l-1 5-3 1 1-4h-2l-1-4z" fill="#7a595d"/><path d="M25 5l1 2h10l-4 3c-3.75-.812-3.75-.812-7-2V5z" fill="#3d171c"/><path d="M27 0c5.75 1.625 5.75 1.625 8 5h-4V3h-4V0z" fill="#0b0711"/><path d="M36 32c-2.972 1.899-5.515 3.355-9 4v-3c5.625-2.125 5.625-2.125 9-1z" fill="#0f1520"/><path d="M34 9h3c-.75 6.75-.75 6.75-3 9l-1-2 2-5-1-2z" fill="#c06e46"/><path d="M7 21l1 2 3 1-2 3c-2.625.188-2.625.188-5 0l3-1v-5z" fill="#5b424c"/><path d="M32 11c1 3 1 3 .063 5.188L31 18v-2h-3v-3h4v-2z" fill="#bc6c57"/></svg>
